<svg width="32" height="32" viewBox="7 21 72 72" fill="none" xmlns="http://www.w3.org/2000/svg">
  <path d="M43.291 27.6344C8.96101 30.6044 10.311 60.6044 10.311 60.6044C11.661 88.1744 38.151 88.4444 38.151 88.4444C73.291 88.4444 75.181 60.6044 75.181 60.6044C75.181 60.6044 77.611 24.6644 43.291 27.6344ZM42.571 70.3344C39.781 70.0644 32.751 69.3444 31.131 57.9544C31.131 57.9544 29.271 47.3644 42.771 44.9344C42.771 44.9344 52.481 43.8544 54.111 56.0144C55.721 68.1744 45.361 70.6044 42.571 70.3344Z" fill="#005325"/>
  <path d="M43.291 26.1344C8.96101 29.1044 10.311 59.1044 10.311 59.1044C11.661 86.6744 38.151 86.9444 38.151 86.9444C73.291 86.9444 75.181 59.1044 75.181 59.1044C75.181 59.1044 77.611 23.1644 43.291 26.1344ZM42.571 68.8344C39.781 68.5644 32.751 67.8444 31.131 56.4544C31.131 56.4544 29.271 45.8644 42.771 43.4344C42.771 43.4344 52.481 42.3544 54.111 54.5144C55.721 66.6744 45.361 69.1044 42.571 68.8344Z" fill="#017C38"/>
</svg>