<svg width="218" height="147" viewBox="0 0 218 147" fill="none" xmlns="http://www.w3.org/2000/svg">
<path d="M54.3123 35.8803L17.068 45.3124L26.0558 80.8022L63.3001 71.3701L54.3123 35.8803Z" fill="#14AC39"/>
<path d="M58.9236 68.9265L53.9743 49.3834L40.742 52.7345L45.6913 72.2775L58.9236 68.9265Z" fill="#24C2DE"/>
<mask id="mask0_1036_78" style="mask-type:luminance" maskUnits="userSpaceOnUse" x="40" y="49" width="19" height="24">
<path d="M58.9236 68.9265L53.9743 49.3834L40.742 52.7345L45.6913 72.2775L58.9236 68.9265Z" fill="white"/>
</mask>
<g mask="url(#mask0_1036_78)">
<path opacity="0.8" d="M50.41 71.0802L56.17 69.6202L40.48 52.8002L34.72 54.2602L50.41 71.0802Z" fill="#CCF0EF"/>
</g>
<mask id="mask1_1036_78" style="mask-type:luminance" maskUnits="userSpaceOnUse" x="40" y="49" width="19" height="24">
<path d="M58.9236 68.9265L53.9743 49.3834L40.742 52.7345L45.6913 72.2775L58.9236 68.9265Z" fill="white"/>
</mask>
<g mask="url(#mask1_1036_78)">
<path opacity="0.8" d="M58.47 69.0402L60.65 68.4902L44.96 51.6602L42.79 52.2202L58.47 69.0402Z" fill="#CCF0EF"/>
</g>
<mask id="mask2_1036_78" style="mask-type:luminance" maskUnits="userSpaceOnUse" x="38" y="48" width="22" height="25">
<path d="M59.9938 65.8552L50.3982 48.1252L38.3935 54.6222L47.9892 72.3522L59.9938 65.8552Z" fill="white"/>
</mask>
<g mask="url(#mask2_1036_78)">
<path opacity="0.6" d="M48.6406 53.9518L41.5058 55.7587L45.6867 72.2676L52.8214 70.4607L48.6406 53.9518Z" fill="#24C2DE"/>
</g>
<mask id="mask3_1036_78" style="mask-type:luminance" maskUnits="userSpaceOnUse" x="38" y="50" width="22" height="25">
<path d="M59.6542 68.286L50.0586 50.556L38.0539 57.053L47.6496 74.783L59.6542 68.286Z" fill="white"/>
</mask>
<g mask="url(#mask3_1036_78)">
<path opacity="0.6" d="M57.1241 61.8128L54.5649 62.4609L56.3644 69.5666L58.9236 68.9185L57.1241 61.8128Z" fill="#24C2DE"/>
</g>
<path d="M38.94 51.6702L44.61 74.0802L60.71 70.0002L55.04 47.5902L38.94 51.6702ZM45.68 72.2802L43.21 62.5102L56.45 59.1602L56.21 58.2202L42.97 61.5702L40.74 52.7402L53.98 49.3902L58.93 68.9302L45.68 72.2802Z" fill="#BD9B02"/>
<path d="M44.1928 74.2016L44.6096 74.0961L38.9287 51.6641L38.5119 51.7697L44.1928 74.2016Z" fill="#BD9B02"/>
<path d="M42.3953 73.1129L37.446 53.5699L24.2138 56.9209L29.163 76.464L42.3953 73.1129Z" fill="#24C2DE"/>
<mask id="mask4_1036_78" style="mask-type:luminance" maskUnits="userSpaceOnUse" x="20" y="53" width="23" height="25">
<path d="M42.4723 71.2679L32.8766 53.5379L20.872 60.0349L30.4676 77.7649L42.4723 71.2679Z" fill="white"/>
</mask>
<g mask="url(#mask4_1036_78)">
<path opacity="0.6" d="M40.9362 67.3422L27.7039 70.6932L29.1622 76.4515L42.3945 73.1004L40.9362 67.3422Z" fill="#24C2DE"/>
</g>
<mask id="mask5_1036_78" style="mask-type:luminance" maskUnits="userSpaceOnUse" x="21" y="52" width="23" height="25">
<path d="M43.4784 70.0394L33.8828 52.3094L21.8781 58.8065L31.4737 76.5365L43.4784 70.0394Z" fill="white"/>
</mask>
<g mask="url(#mask5_1036_78)">
<path opacity="0.6" d="M33.6293 64.1236L26.4946 65.9305L27.619 70.3703L34.7537 68.5635L33.6293 64.1236Z" fill="#24C2DE"/>
</g>
<mask id="mask6_1036_78" style="mask-type:luminance" maskUnits="userSpaceOnUse" x="23" y="51" width="22" height="26">
<path d="M44.6119 69.5971L35.0162 51.8671L23.0116 58.3642L32.6072 76.0941L44.6119 69.5971Z" fill="white"/>
</mask>
<g mask="url(#mask6_1036_78)">
<path opacity="0.6" d="M32.4309 59.3616L25.2961 61.1685L26.4205 65.6083L33.5553 63.8014L32.4309 59.3616Z" fill="#24C2DE"/>
</g>
<mask id="mask7_1036_78" style="mask-type:luminance" maskUnits="userSpaceOnUse" x="22" y="54" width="23" height="25">
<path d="M44.0977 72.0317L34.5021 54.3018L22.4974 60.7988L32.093 78.5288L44.0977 72.0317Z" fill="white"/>
</mask>
<g mask="url(#mask7_1036_78)">
<path opacity="0.6" d="M40.0114 63.7384L37.0159 64.497L37.8482 67.7833L40.8436 67.0247L40.0114 63.7384Z" fill="#24C2DE"/>
</g>
<mask id="mask8_1036_78" style="mask-type:luminance" maskUnits="userSpaceOnUse" x="23" y="53" width="22" height="26">
<path d="M44.9512 71.6987L35.3555 53.9688L23.3509 60.4658L32.9465 78.1958L44.9512 71.6987Z" fill="white"/>
</mask>
<g mask="url(#mask8_1036_78)">
<path opacity="0.6" d="M39.1013 60.1487L36.1059 60.9073L36.9381 64.1936L39.9336 63.435L39.1013 60.1487Z" fill="#24C2DE"/>
</g>
<mask id="mask9_1036_78" style="mask-type:luminance" maskUnits="userSpaceOnUse" x="24" y="53" width="19" height="24">
<path d="M42.3952 73.1129L37.446 53.5699L24.2137 56.9209L29.163 76.464L42.3952 73.1129Z" fill="white"/>
</mask>
<g mask="url(#mask9_1036_78)">
<path opacity="0.8" d="M33.89 75.2602L39.65 73.8002L23.96 56.9802L18.2 58.4402L33.89 75.2602Z" fill="#CCF0EF"/>
</g>
<mask id="mask10_1036_78" style="mask-type:luminance" maskUnits="userSpaceOnUse" x="24" y="53" width="19" height="24">
<path d="M42.3952 73.1129L37.446 53.5699L24.2137 56.9209L29.163 76.464L42.3952 73.1129Z" fill="white"/>
</mask>
<g mask="url(#mask10_1036_78)">
<path opacity="0.8" d="M41.9499 73.2202L44.1299 72.6702L28.4399 55.8502L26.2599 56.4002L41.9499 73.2202Z" fill="#CCF0EF"/>
</g>
<path d="M22.42 55.8503L28.09 78.2603L44.19 74.1803L38.52 51.7703L22.42 55.8503ZM29.16 76.4603L26.68 66.6903L39.92 63.3403L39.68 62.4003L26.44 65.7503L24.21 56.9203L37.45 53.5703L42.4 73.1103L29.16 76.4603Z" fill="#BD9B02"/>
<path d="M27.6708 78.3877L28.0876 78.2821L22.4068 55.8502L21.9899 55.9558L27.6708 78.3877Z" fill="#BD9B02"/>
<path d="M56.72 36.8203L55.63 32.5703L14.32 43.0303L16.05 48.6003C16.05 48.6003 17.4 49.8903 19.1 49.4803C20.73 49.0903 21.72 47.4103 21.3 45.7803C21.71 47.4103 23.37 48.4003 25 47.9803C26.63 47.5703 27.62 45.9103 27.2 44.2803C27.61 45.9103 29.27 46.9003 30.9 46.4803C32.53 46.0703 33.52 44.4103 33.1 42.7803C33.51 44.4103 35.17 45.4003 36.8 44.9803C38.43 44.5703 39.42 42.9103 39 41.2803C39.41 42.9103 41.07 43.9003 42.7 43.4803C44.33 43.0603 45.32 41.4103 44.9 39.7803C45.31 41.4103 46.97 42.4003 48.6 41.9803C50.23 41.5703 51.22 39.9103 50.8 38.2803C51.21 39.9103 52.87 40.9003 54.5 40.4803C56.13 40.0603 57.13 38.4503 56.72 36.8203Z" fill="#037C39"/>
<path d="M18.69 47.9002C17.06 48.3102 15.4 47.3302 14.99 45.7002L14.31 43.0202L20.21 41.5302L20.89 44.2102C21.31 45.8302 20.32 47.4902 18.69 47.9002Z" fill="#E4E1E4"/>
<path d="M24.6 46.4002C22.97 46.8102 21.31 45.8302 20.9 44.2002L20.22 41.5202L26.12 40.0302L26.8 42.7102C27.21 44.3402 26.23 45.9902 24.6 46.4002Z" fill="#A77E01"/>
<path d="M30.5 44.9102C28.87 45.3202 27.21 44.3402 26.8 42.7102L26.12 40.0302L32.02 38.5402L32.7 41.2202C33.11 42.8402 32.13 44.5002 30.5 44.9102Z" fill="#E4E1E4"/>
<path d="M36.4 43.4202C34.77 43.8302 33.11 42.8502 32.7 41.2202L32.02 38.5402L37.92 37.0502L38.6 39.7302C39.02 41.3502 38.03 43.0002 36.4 43.4202Z" fill="#A77E01"/>
<path d="M42.3 41.9202C40.67 42.3302 39.01 41.3502 38.6 39.7202L37.92 37.0402L43.82 35.5502L44.5 38.2302C44.92 39.8502 43.93 41.5102 42.3 41.9202Z" fill="#E4E1E4"/>
<path d="M48.2 40.4302C46.57 40.8402 44.91 39.8602 44.5 38.2302L43.82 35.5502L49.72 34.0602L50.4 36.7402C50.82 38.3602 49.83 40.0102 48.2 40.4302Z" fill="#A77E01"/>
<path d="M54.11 38.9302C52.48 39.3402 50.82 38.3602 50.41 36.7302L49.73 34.0502L55.63 32.5602L56.31 35.2402C56.72 36.8702 55.73 38.5202 54.11 38.9302Z" fill="#E4E1E4"/>
<path d="M47.8715 29.1951L19.09 36.4839L19.4484 37.8993L48.2299 30.6104L47.8715 29.1951Z" fill="#116A07"/>
<path d="M23.17 36.2502L18.88 37.3402L14.32 43.0302L20.22 41.5302L23.17 36.2502Z" fill="#F5EFF2"/>
<path d="M27.46 35.1702L23.17 36.2502L20.22 41.5302L26.12 40.0402L27.46 35.1702Z" fill="#FAA937"/>
<path d="M31.75 34.0802L27.46 35.1702L26.12 40.0402L32.03 38.5402L31.75 34.0802Z" fill="#F5EFF2"/>
<path d="M36.04 32.9902L31.75 34.0802L32.03 38.5402L37.93 37.0502L36.04 32.9902Z" fill="#FAA937"/>
<path d="M40.33 31.9102L36.04 32.9902L37.93 37.0502L43.83 35.5602L40.33 31.9102Z" fill="#F5EFF2"/>
<path d="M44.62 30.8202L40.33 31.9102L43.83 35.5602L49.73 34.0602L44.62 30.8202Z" fill="#FAA937"/>
<path d="M48.91 29.7302L44.62 30.8202L49.73 34.0602L55.63 32.5702L48.91 29.7302Z" fill="#F5EFF2"/>
<path d="M69.22 62.4302C69.22 62.4302 59.63 49.0502 63.54 45.4002C63.54 45.4002 66.24 42.9702 74.76 46.7502C74.76 46.7502 64.35 35.5302 68 32.5602C71.65 29.5902 82.46 41.7502 82.46 41.7502C82.46 41.7502 78.68 29.1802 83.68 27.5602C83.68 27.5602 87.87 26.6102 91.65 37.2902C91.65 37.2902 92.73 32.5602 95.84 32.8302C98.95 33.1002 100.3 37.5602 101.52 39.7202C102.74 41.8802 107.87 50.4002 108.41 51.3402C108.95 52.2802 110.44 54.4502 113.27 52.6902C116.11 50.9302 121.48 34.7202 125.28 34.4502C125.28 34.4502 127.32 34.1802 128.54 37.5602C128.54 37.5602 130.16 29.8602 133.4 29.7202C136.64 29.5802 135.7 36.7502 137.59 37.2902C139.48 37.8302 140.16 30.2602 149.89 37.2902C149.89 37.2902 151.78 39.0502 153.67 38.2402C155.56 37.4302 159.48 32.9702 163.94 34.7302C168.4 36.4902 165.56 44.9902 165.56 44.9902C165.56 44.9902 167.45 42.9702 170.29 43.7802C170.29 43.7802 171.51 39.3202 175.02 39.4602C178.53 39.6002 179.21 41.8902 180.83 42.0302C182.45 42.1702 187.05 42.0302 190.02 43.7902C190.02 43.7902 191.37 44.6002 192.72 43.3802C194.07 42.1602 196.37 43.3802 197.58 44.1902C198.8 45.0002 202.17 44.6702 202.85 48.0802C203.53 51.4902 203.26 50.4102 205.15 52.1702C207.04 53.9302 206.77 57.3102 202.31 59.0602C202.31 59.0602 205.04 60.1902 204.07 62.4402C203.1 64.6902 203.12 68.5202 203.12 68.5202L78.48 69.2802L69.22 62.4302Z" fill="url(#paint0_linear_1036_78)"/>
<path d="M79.04 62.0702C79.04 62.0702 67.51 54.1402 69.13 51.2602C70.75 48.3802 81.56 55.4002 81.56 55.4002C81.56 55.4002 73.12 46.0302 75.27 42.7902C77.42 39.5502 86.61 52.4302 86.61 52.4302C86.61 52.4302 81.46 39.3702 85.75 38.1102C90.04 36.8502 93.1 51.4402 93.1 51.4402C93.1 51.4402 94.9 44.9502 98.33 46.0302C101.75 47.1102 102.47 57.2802 101.39 62.9702L82.65 66.3102L79.04 62.0702Z" fill="#009648"/>
<path d="M187.69 30.0802C187.69 30.0802 191.41 31.1102 192.9 27.1702C192.9 27.1702 191.87 30.8102 195.12 32.4602C195.12 32.4602 191.07 32.2102 190.01 35.8102C190.01 35.8102 191.04 31.8402 187.69 30.0802Z" fill="#98C222"/>
<path d="M4.75 134C5.51 133.33 6.55001 131.99 6.14001 129.96C6.10001 129.75 6.34001 129.61 6.48001 129.76C7.22001 130.56 8.52 131.52 10.38 131.22C10.56 131.19 10.68 131.42 10.56 131.56C9.9 132.32 8.84 133.89 9.25 135.82C9.29 136.02 9.03001 136.14 8.89001 135.99C8.11001 135.16 6.76 134.16 4.91 134.35C4.72 134.36 4.6 134.13 4.75 134Z" fill="#98C222"/>
<path d="M197.58 144.71C198.34 144.04 199.38 142.7 198.97 140.67C198.93 140.46 199.17 140.32 199.31 140.47C200.05 141.27 201.35 142.23 203.21 141.93C203.39 141.9 203.51 142.13 203.39 142.27C202.73 143.03 201.67 144.6 202.08 146.53C202.12 146.73 201.86 146.85 201.72 146.7C200.93 145.87 199.59 144.87 197.74 145.06C197.55 145.08 197.44 144.84 197.58 144.71Z" fill="#98C222"/>
<path d="M30.23 13.5302C32.84 12.9402 36.76 11.2202 38.49 6.25022C38.69 5.68022 39.51 5.73022 39.66 6.32022C40.34 9.08022 42.07 12.8002 46.51 14.5402C47.03 14.7402 47.01 15.4902 46.48 15.6802C43.98 16.5902 39.72 18.7702 38.08 23.4802C37.88 24.0702 37.06 24.0502 36.91 23.4502C36.18 20.5502 34.41 16.6602 30.13 14.6802C29.59 14.4402 29.66 13.6602 30.23 13.5302Z" fill="#42A737"/>
<path d="M79.35 3.8202C80.09 6.5702 78.46 9.3902 75.71 10.1202C72.96 10.8602 70.14 9.2302 69.4 6.4802C68.66 3.7302 70.29 0.910199 73.04 0.170199C75.79 -0.549801 78.61 1.0802 79.35 3.8202Z" fill="#FE9B03"/>
<path d="M76.26 12.2002C71.16 13.5602 68.14 18.8002 69.5 23.9002C69.86 25.2402 71.23 26.0302 72.57 25.6702L86.18 22.0302C87.52 21.6702 88.31 20.3002 87.95 18.9602C86.59 13.8602 81.36 10.8402 76.26 12.2002Z" fill="#FE9B03"/>
<path d="M122.36 7.8302C119.32 4.5702 115.33 2.9502 111.34 2.9502C107.35 2.9502 103.36 4.5802 100.32 7.8302C94.78 13.7602 94.21 23.1702 99 29.8102L109.93 44.9802C110.65 45.9702 112.05 45.9702 112.76 44.9802L123.69 29.8102C128.46 23.1602 127.9 13.7602 122.36 7.8302ZM111.33 28.7102C106.64 28.7102 102.84 24.6402 102.84 19.6202C102.84 14.6002 106.64 10.5302 111.33 10.5302C116.02 10.5302 119.82 14.6002 119.82 19.6202C119.83 24.6402 116.02 28.7102 111.33 28.7102Z" fill="#FE9B03"/>
<path d="M159.86 21.1802C160.12 17.0102 158.1 10.5602 154.48 10.3402C150.86 10.1202 148.07 16.2702 147.81 20.4402C147.56 24.4702 149.54 27.9602 152.36 28.7702L149.15 56.6202C149.14 56.7102 149.13 56.8002 149.13 56.8802C149.12 58.2502 150.22 59.3702 151.6 59.3902C152.97 59.4002 154.09 58.3002 154.11 56.9202L154.34 28.8802C157.22 28.4302 159.61 25.2102 159.86 21.1802Z" fill="#055423"/>
<path d="M142.49 13.2902C142.13 13.3502 141.88 13.6802 141.94 14.0302L143.44 22.8102L143.71 24.3802C143.75 24.6302 143.57 24.8702 143.31 24.9102C143.05 24.9502 142.8 24.7902 142.76 24.5402L140.99 14.1902C140.93 13.8402 140.59 13.6102 140.22 13.6802C139.85 13.7502 139.61 14.0702 139.67 14.4202L141.44 24.7702C141.48 25.0202 141.3 25.2602 141.04 25.3002C140.78 25.3402 140.53 25.1802 140.49 24.9302L138.72 14.5802C138.66 14.2302 138.32 14.0002 137.95 14.0702C137.58 14.1402 137.34 14.4602 137.4 14.8102L139.17 25.1602C139.21 25.4102 139.03 25.6502 138.77 25.6902C138.51 25.7302 138.26 25.5702 138.22 25.3202L137.88 23.3002L136.46 14.9702C136.4 14.6202 136.06 14.3902 135.69 14.4602C135.33 14.5202 135.08 14.8502 135.14 15.2002L136.56 23.5302L136.9 25.5502L137.19 27.2602C137.58 29.5702 139.25 31.2702 141.13 31.4802L144.03 57.2102C144.04 57.2902 144.05 57.3702 144.07 57.4502C144.35 58.6802 145.64 59.4502 146.94 59.1602C148.24 58.8702 149.06 57.6302 148.78 56.4002L142.99 31.1602C144.69 30.3502 145.7 28.1802 145.31 25.8802L145.02 24.1702L144.75 22.6002L143.25 13.8202C143.2 13.4602 142.85 13.2302 142.49 13.2902Z" fill="#055423"/>
<path d="M170.48 60.6802L173.7 48.4202C173.7 48.4202 173.9 45.5202 177.6 46.2002C181.3 46.8702 197.35 51.3302 197.35 51.3302C197.35 51.3302 201.88 51.9202 200.06 56.2302L197.89 65.5102L194.63 64.5902L196.26 57.2202C196.26 57.2202 197 54.6402 194.94 54.3502C192.88 54.0702 192.83 54.7602 192.27 56.8002C191.71 58.8402 190.68 63.6202 190.68 63.6202L188.22 63.0302L190.04 56.7802C190.04 56.7802 191.22 53.8102 189.87 53.3002C188.52 52.7902 185.55 51.6102 184.94 54.3402C184.33 57.0702 183.27 62.4002 183.27 62.4002L179.7 61.8702L181.94 53.7102C181.94 53.7102 183.1 51.0202 180.22 50.5402C176.63 49.9402 176.33 50.6802 176.21 52.3402C176.09 54.0002 174.18 61.4902 174.18 61.4902L170.48 60.6802Z" fill="#FDFEFF"/>
<path d="M137.25 6.79018C138.796 6.79018 140.05 5.53659 140.05 3.99019C140.05 2.44379 138.796 1.19019 137.25 1.19019C135.704 1.19019 134.45 2.44379 134.45 3.99019C134.45 5.53659 135.704 6.79018 137.25 6.79018Z" fill="#42A737"/>
<path d="M214.85 65.7302C216.396 65.7302 217.65 64.4766 217.65 62.9302C217.65 61.3838 216.396 60.1302 214.85 60.1302C213.304 60.1302 212.05 61.3838 212.05 62.9302C212.05 64.4766 213.304 65.7302 214.85 65.7302Z" fill="#42A737"/>
<path d="M3.84 70.6202C5.96077 70.6202 7.68 68.901 7.68 66.7802C7.68 64.6594 5.96077 62.9402 3.84 62.9402C1.71923 62.9402 0 64.6594 0 66.7802C0 68.901 1.71923 70.6202 3.84 70.6202Z" fill="#FE9B03"/>
<path d="M175.07 36.3502C175.909 36.3502 176.59 35.6697 176.59 34.8302C176.59 33.9907 175.909 33.3102 175.07 33.3102C174.231 33.3102 173.55 33.9907 173.55 34.8302C173.55 35.6697 174.231 36.3502 175.07 36.3502Z" fill="#98C222"/>
<path d="M56.81 4.46022C57.6494 4.46022 58.33 3.7797 58.33 2.94023C58.33 2.10075 57.6494 1.42023 56.81 1.42023C55.9705 1.42023 55.29 2.10075 55.29 2.94023C55.29 3.7797 55.9705 4.46022 56.81 4.46022Z" fill="#FE9B03"/>
<path d="M175.85 21.1102C178.645 21.1102 180.91 18.8448 180.91 16.0502C180.91 13.2557 178.645 10.9902 175.85 10.9902C173.055 10.9902 170.79 13.2557 170.79 16.0502C170.79 18.8448 173.055 21.1102 175.85 21.1102Z" fill="#FE9B03"/>
<path d="M111.59 24.6802C114.385 24.6802 116.65 22.4147 116.65 19.6202C116.65 16.8256 114.385 14.5602 111.59 14.5602C108.795 14.5602 106.53 16.8256 106.53 19.6202C106.53 22.4147 108.795 24.6802 111.59 24.6802Z" fill="#055423"/>
<defs>
<linearGradient id="paint0_linear_1036_78" x1="134.441" y1="27.545" x2="134.441" y2="69.2781" gradientUnits="userSpaceOnUse">
<stop stop-color="#98C220"/>
<stop offset="0.1239" stop-color="#90C021"/>
<stop offset="0.3112" stop-color="#7CBC25"/>
<stop offset="0.5389" stop-color="#59B52B"/>
<stop offset="0.7957" stop-color="#2BAB33"/>
<stop offset="1" stop-color="#00A23A"/>
</linearGradient>
</defs>
</svg>
