<svg width="202" height="107" viewBox="0 0 202 107" fill="none" xmlns="http://www.w3.org/2000/svg">
<path d="M43.291 27.6344C8.96101 30.6044 10.311 60.6044 10.311 60.6044C11.661 88.1744 38.151 88.4444 38.151 88.4444C73.291 88.4444 75.181 60.6044 75.181 60.6044C75.181 60.6044 77.611 24.6644 43.291 27.6344ZM42.571 70.3344C39.781 70.0644 32.751 69.3444 31.131 57.9544C31.131 57.9544 29.271 47.3644 42.771 44.9344C42.771 44.9344 52.481 43.8544 54.111 56.0144C55.721 68.1744 45.361 70.6044 42.571 70.3344Z" fill="#005325"/>
<path d="M75.221 36.5544C75.221 36.5544 72.481 34.1244 76.531 32.2344C80.581 30.3444 91.121 29.2644 93.021 30.0744C94.921 30.8844 96.531 34.6644 96.531 34.6644C96.531 34.6644 102.211 28.7144 109.231 29.7944C109.231 29.7944 114.091 28.8544 113.551 33.1044C113.011 37.3644 111.391 50.3344 111.391 50.3344C111.391 50.3344 98.421 47.9044 98.961 59.7944C99.501 71.6844 100.041 79.0744 100.041 79.0744C100.041 79.0744 92.651 82.6744 81.301 80.8744C81.301 80.8744 80.221 81.2344 80.221 77.8144C80.221 74.3944 82.461 46.4644 75.221 36.5544Z" fill="#005325"/>
<path d="M119.861 13.3144C119.861 13.3144 118.961 10.6144 122.921 9.89439C126.881 9.17439 141.301 7.9144 140.761 13.3144C140.221 18.7244 135.171 73.1344 135.711 76.9144C136.251 80.6944 133.291 80.5144 130.271 80.6944C127.251 80.8744 113.731 82.1344 114.811 76.7344C115.891 71.3344 119.861 13.3144 119.861 13.3144Z" fill="#005325"/>
<path d="M143.831 32.2344C143.831 32.2344 143.291 29.1744 146.351 28.6344C149.411 28.0944 160.941 28.6344 160.941 28.6344C160.941 28.6344 163.101 28.2744 162.561 32.2344C162.021 36.1944 159.851 55.4744 162.651 56.3744C165.451 57.2744 170.671 59.0244 171.391 45.0844C172.111 31.1444 171.031 29.7944 174.991 29.6544C178.951 29.5144 188.861 32.9444 188.861 32.9444C188.861 32.9444 189.941 33.6644 189.941 36.7244C189.941 39.7844 189.581 63.5744 185.621 75.1044C181.661 86.6344 168.971 98.7044 143.781 90.9644C143.781 90.9644 140.061 90.2444 140.771 86.8244C141.481 83.4044 141.121 74.9344 145.081 75.2944C149.041 75.6544 165.621 82.8644 168.681 69.8844C168.681 69.8844 142.011 77.8144 142.551 54.0244L143.831 32.2344Z" fill="#005325"/>
<path d="M1.09098 53.9944C1.09098 53.9944 7.39099 19.8644 49.901 20.9444C49.901 20.9444 59.351 22.0244 64.601 26.1744C64.601 26.1744 67.921 28.5144 70.721 26.7144C73.521 24.9144 88.391 22.5744 95.741 24.3744C95.741 24.3744 102.041 20.9544 107.641 22.0344C107.641 22.0344 104.841 0.234436 131.611 3.29444C131.611 3.29444 150.331 3.00443 145.961 21.4944C145.961 21.4944 159.431 20.9544 165.201 22.9344C170.971 24.9144 185.841 19.5144 193.721 35.7244C193.721 35.7244 196.691 41.6544 195.471 54.0044C194.251 66.3544 194.601 98.4244 174.651 103.474C154.701 108.524 136.691 107.434 131.791 93.9244C131.791 93.9244 109.571 95.3644 108.001 87.2544C108.001 87.2544 106.501 93.0244 91.241 93.3844C75.981 93.7444 73.711 91.7644 70.741 89.0644C70.741 89.0644 60.071 103.114 34.001 100.414C7.91098 97.6944 -3.80902 78.5744 1.09098 53.9944Z" fill="#005325"/>
<path d="M1.12101 50.9944C1.12101 50.9944 7.61102 16.8644 51.391 17.9444C51.391 17.9444 61.121 19.0244 66.531 23.1744C66.531 23.1744 69.951 25.5144 72.841 23.7144C75.721 21.9144 91.041 19.5744 98.611 21.3744C98.611 21.3744 105.101 17.9544 110.861 19.0344C110.861 19.0344 107.981 -2.76556 135.541 0.294436C135.541 0.294436 154.821 0.00443268 150.311 18.4944C150.311 18.4944 164.181 17.9544 170.131 19.9344C176.081 21.9144 191.391 16.5144 199.501 32.7244C199.501 32.7244 202.561 38.6544 201.301 51.0044C200.041 63.3544 200.401 95.4244 179.861 100.474C159.321 105.524 140.761 104.434 135.721 90.9244C135.721 90.9244 112.841 92.3644 111.221 84.2544C111.221 84.2544 109.671 90.0244 93.961 90.3844C78.251 90.7444 75.901 88.7644 72.841 86.0644C72.841 86.0644 61.851 100.114 35.001 97.4144C8.15101 94.7144 -3.91899 75.5744 1.12101 50.9944Z" fill="white"/>
<path d="M43.291 26.1344C8.96101 29.1044 10.311 59.1044 10.311 59.1044C11.661 86.6744 38.151 86.9444 38.151 86.9444C73.291 86.9444 75.181 59.1044 75.181 59.1044C75.181 59.1044 77.611 23.1644 43.291 26.1344ZM42.571 68.8344C39.781 68.5644 32.751 67.8444 31.131 56.4544C31.131 56.4544 29.271 45.8644 42.771 43.4344C42.771 43.4344 52.481 42.3544 54.111 54.5144C55.721 66.6744 45.361 69.1044 42.571 68.8344Z" fill="#017C38"/>
<path d="M75.221 35.0544C75.221 35.0544 72.481 32.6244 76.531 30.7344C80.581 28.8444 91.121 27.7644 93.021 28.5744C94.911 29.3844 96.531 33.1644 96.531 33.1644C96.531 33.1644 102.211 27.2144 109.231 28.2944C109.231 28.2944 114.091 27.3544 113.551 31.6044C113.011 35.8644 111.391 48.8344 111.391 48.8344C111.391 48.8344 98.421 46.4044 98.961 58.2944C99.501 70.1844 100.041 77.5744 100.041 77.5744C100.041 77.5744 92.651 81.1744 81.301 79.3744C81.301 79.3744 80.221 79.7344 80.221 76.3144C80.221 72.8944 82.461 44.9644 75.221 35.0544Z" fill="#017C38"/>
<path d="M119.861 11.8144C119.861 11.8144 118.961 9.11439 122.921 8.39439C126.881 7.67439 141.301 6.4144 140.761 11.8144C140.221 17.2144 135.171 71.6344 135.711 75.4144C136.251 79.1944 133.291 79.0144 130.271 79.1944C127.251 79.3744 113.731 80.6344 114.811 75.2344C115.901 69.8244 119.861 11.8144 119.861 11.8144Z" fill="#017C38"/>
<path d="M143.831 30.7244C143.831 30.7244 143.291 27.6644 146.351 27.1244C149.411 26.5844 160.941 27.1244 160.941 27.1244C160.941 27.1244 163.101 26.7644 162.561 30.7244C162.021 34.6844 159.851 53.9644 162.651 54.8644C165.451 55.7644 170.671 57.5144 171.391 43.5744C172.111 29.6344 171.031 28.2844 174.991 28.1444C178.951 28.0044 188.861 31.4344 188.861 31.4344C188.861 31.4344 189.941 32.1544 189.941 35.2144C189.941 38.2744 189.581 62.0644 185.621 73.5944C181.661 85.1244 168.971 97.1944 143.781 89.4544C143.781 89.4544 140.061 88.7344 140.771 85.3144C141.481 81.8944 141.121 73.4244 145.081 73.7844C149.041 74.1444 165.621 81.3544 168.681 68.3744C168.681 68.3744 142.011 76.3044 142.551 52.5144L143.831 30.7244Z" fill="#017C38"/>
</svg>
